<svg width="512" height="512" viewBox="0 0 512 512" fill="none" xmlns="http://www.w3.org/2000/svg">
<defs>
<linearGradient id="metallic-gradient" x1="0%" y1="0%" x2="100%" y2="100%">
<stop offset="0%" stop-color="#E0E0E0" />
<stop offset="20%" stop-color="#F5F5F5" />
<stop offset="45%" stop-color="#C0C0C0" />
<stop offset="50%" stop-color="#A0A0A0" />
<stop offset="55%" stop-color="#C0C0C0" />
<stop offset="80%" stop-color="#F5F5F5" />
<stop offset="100%" stop-color="#E0E0E0" />
</linearGradient>
<filter id="glow" x="-20%" y="-20%" width="140%" height="140%">
<feGaussianBlur stdDeviation="15" result="blur" />
<feComposite in="SourceGraphic" in2="blur" operator="over" />
</filter>
</defs>
<g filter="url(#glow)">
<path d="M256 64C149.96 64 64 149.96 64 256C64 362.04 149.96 448 256 448C305.28 448 350.24 429.61 385.08 399.16C393.59 391.73 394.43 378.83 386.99 370.32L361.32 340.97C354.51 333.19 342.66 331.98 334.36 338.21C312.91 354.34 285.87 364 256 364C196.35 364 148 315.65 148 256C148 196.35 196.35 148 256 148C285.87 148 312.91 157.66 334.36 173.79C342.66 180.02 354.51 178.81 361.32 171.03L386.99 141.68C394.43 133.17 393.59 120.27 385.08 112.84C350.24 82.39 305.28 64 256 64Z" fill="url(#metallic-gradient)"/>
</g>
</svg>
